<?xml version="1.0" encoding="utf-8"?>
<!-- Generator: Adobe Illustrator 19.2.1, SVG Export Plug-In . SVG Version: 6.00 Build 0)  -->
<svg version="1.1" id="Layer_1" xmlns="http://www.w3.org/2000/svg" xmlns:xlink="http://www.w3.org/1999/xlink" x="0px" y="0px"
	 width="167px" height="32px" viewBox="0 0 167 32" style="enable-background:new 0 0 167 32;" xml:space="preserve">
<style type="text/css">
	.st0{fill:#FFFFFF;}
	.st1{fill:#E4E8E9;}
	.st2{fill:#68C39F;}
	.st3{fill:#449BB5;}
	.st4{fill:#B8C1C4;}
	.st5{fill:#D2D8DA;}
	.st6{fill:#DBE0E1;}
	.st7{fill:#EDEFF0;}
</style>
<g>
	<path class="st0" d="M50.1,16.2c0,2-0.5,3.6-1.5,4.7s-2.4,1.6-4.3,1.6S41,22,40,20.9s-1.5-2.7-1.5-4.7c0-2.1,0.5-3.6,1.5-4.7
		s2.5-1.6,4.3-1.6c1.9,0,3.3,0.5,4.3,1.6S50.1,14.2,50.1,16.2z M41.1,16.2c0,1.4,0.3,2.4,0.8,3.1s1.3,1,2.3,1c2.1,0,3.1-1.4,3.1-4.2
		s-1-4.2-3.1-4.2c-1,0-1.8,0.3-2.3,1C41.4,13.8,41.1,14.8,41.1,16.2z M57.2,22.6c-1.1,0-2-0.4-2.6-1.2h-0.1c0.1,0.8,0.1,1.2,0.1,1.4
		v3.8H52V13h2.1l0.4,1.2h0.1c0.6-0.9,1.5-1.4,2.7-1.4c1.1,0,2,0.4,2.6,1.3c0.6,0.9,0.9,2.1,0.9,3.6c0,1-0.1,1.9-0.4,2.6
		c-0.3,0.7-0.7,1.3-1.3,1.7C58.6,22.4,58,22.6,57.2,22.6z M56.5,14.9c-0.6,0-1.1,0.2-1.4,0.6c-0.3,0.4-0.4,1-0.5,1.9v0.3
		c0,1,0.1,1.7,0.4,2.2c0.3,0.4,0.8,0.7,1.4,0.7c1.1,0,1.7-0.9,1.7-2.8c0-0.9-0.1-1.6-0.4-2.1C57.5,15.1,57.1,14.9,56.5,14.9z
		 M67,22.6c-1.5,0-2.7-0.4-3.5-1.3c-0.8-0.8-1.3-2-1.3-3.6s0.4-2.8,1.2-3.7c0.8-0.9,1.9-1.3,3.3-1.3c1.3,0,2.4,0.4,3.1,1.1
		c0.7,0.8,1.1,1.8,1.1,3.1v1.2h-6c0,0.7,0.2,1.3,0.6,1.7c0.4,0.4,1,0.6,1.7,0.6c0.6,0,1.1-0.1,1.6-0.2s1-0.3,1.6-0.6v2
		C70,21.8,69.5,22,69,22.1C68.3,22.5,67.7,22.6,67,22.6z M66.6,14.6c-0.5,0-1,0.2-1.3,0.5s-0.5,0.8-0.5,1.5h3.6
		c0-0.6-0.2-1.1-0.5-1.5C67.6,14.8,67.1,14.6,66.6,14.6z M81.2,22.4h-2.6v-5.5c0-0.7-0.1-1.2-0.4-1.5c-0.2-0.3-0.6-0.5-1.1-0.5
		c-0.7,0-1.2,0.2-1.6,0.7C75.2,16.1,75,16.9,75,18v4.4h-2.6V13h2l0.3,1.2H75c0.3-0.5,0.7-0.8,1.2-1s1.1-0.3,1.7-0.3
		c1.1,0,1.9,0.3,2.5,0.9c0.6,0.6,0.8,1.4,0.8,2.6C81.2,16.4,81.2,22.4,81.2,22.4z M91.5,22.4l-0.9-2.9h-4.5l-0.9,2.9h-2.8L86.8,10
		H90l4.3,12.4C94.3,22.4,91.5,22.4,91.5,22.4z M90,17.3c-0.8-2.7-1.3-4.2-1.4-4.5s-0.2-0.6-0.2-0.8c-0.2,0.7-0.7,2.5-1.6,5.3H90z
		 M99.5,22.6c-1.5,0-2.7-0.4-3.5-1.3c-0.8-0.8-1.3-2-1.3-3.6s0.4-2.8,1.2-3.7c0.8-0.9,1.9-1.3,3.3-1.3c1.3,0,2.4,0.4,3.1,1.1
		c0.7,0.8,1.1,1.8,1.1,3.1v1.2h-6c0,0.7,0.2,1.3,0.6,1.7c0.4,0.4,1,0.6,1.7,0.6c0.6,0,1.1-0.1,1.6-0.2s1-0.3,1.6-0.6v2
		c-0.4,0.2-0.9,0.4-1.4,0.5C100.8,22.5,100.2,22.6,99.5,22.6L99.5,22.6z M99.1,14.6c-0.5,0-1,0.2-1.3,0.5s-0.5,0.8-0.5,1.5h3.6
		c0-0.6-0.2-1.1-0.5-1.5S99.6,14.6,99.1,14.6z M110.3,12.8c0.3,0,0.6,0,0.9,0.1l-0.2,2.4c-0.2-0.1-0.5-0.1-0.8-0.1
		c-0.8,0-1.5,0.2-1.9,0.6c-0.5,0.4-0.7,1-0.7,1.8v4.8H105V13h1.9l0.4,1.6h0.1c0.3-0.5,0.7-1,1.2-1.3C109.2,13,109.7,12.8,110.3,12.8
		z M112.3,10.5c0-0.8,0.5-1.3,1.4-1.3s1.4,0.4,1.4,1.3c0,0.4-0.1,0.7-0.3,0.9c-0.2,0.2-0.6,0.3-1,0.3
		C112.8,11.8,112.3,11.4,112.3,10.5z M115,22.4h-2.6V13h2.6V22.4z M123.2,22.4l-0.5-1.3h-0.1c-0.4,0.5-0.9,0.9-1.3,1.1
		c-0.5,0.2-1,0.3-1.8,0.3c-0.9,0-1.6-0.3-2.1-0.8s-0.8-1.3-0.8-2.2c0-1,0.3-1.7,1-2.2s1.7-0.7,3.1-0.8l1.6-0.1V16
		c0-1-0.5-1.4-1.5-1.4c-0.7,0-1.6,0.2-2.6,0.7l-0.8-1.7c1.1-0.6,2.3-0.9,3.6-0.9c1.3,0,2.2,0.3,2.9,0.8c0.7,0.6,1,1.4,1,2.5v6.3
		h-1.7C123.2,22.3,123.2,22.4,123.2,22.4z M122.4,18h-1c-0.7,0-1.3,0.2-1.7,0.4c-0.4,0.2-0.5,0.6-0.5,1.1c0,0.7,0.4,1.1,1.2,1.1
		c0.6,0,1.1-0.2,1.4-0.5c0.4-0.3,0.5-0.8,0.5-1.4L122.4,18z M129.7,22.4h-2.6V9.3h2.6V22.4z M137.3,22.4l-3-9.7h-0.1
		c0.1,2,0.2,3.3,0.2,3.9v5.7h-2.3V10.1h3.5l2.9,9.4h0.1l3.1-9.4h3.5v12.3h-2.4v-6.8c0,0,0-1.3,0.1-2.9h-0.1l-3.2,9.7
		C139.6,22.4,137.3,22.4,137.3,22.4z M153.7,22.4l-0.5-1.3h-0.1c-0.4,0.5-0.9,0.9-1.3,1.1c-0.5,0.2-1,0.3-1.8,0.3
		c-0.9,0-1.6-0.3-2.1-0.8s-0.8-1.3-0.8-2.2c0-1,0.3-1.7,1-2.2s1.7-0.7,3.1-0.8l1.6-0.1V16c0-1-0.5-1.4-1.5-1.4
		c-0.7,0-1.6,0.2-2.6,0.7l-0.8-1.7c1.1-0.6,2.3-0.9,3.6-0.9s2.2,0.3,2.9,0.8c0.7,0.6,1,1.4,1,2.5v6.3h-1.7L153.7,22.4L153.7,22.4z
		 M152.9,18h-1c-0.7,0-1.3,0.2-1.7,0.4c-0.4,0.2-0.5,0.6-0.5,1.1c0,0.7,0.4,1.1,1.2,1.1c0.6,0,1.1-0.2,1.4-0.5
		c0.4-0.3,0.5-0.8,0.5-1.4V18H152.9z M162.8,22.6c-1.1,0-2-0.4-2.6-1.2h-0.1c0.1,0.8,0.1,1.2,0.1,1.4v3.8h-2.6V13h2.1l0.4,1.2h0.1
		c0.6-0.9,1.5-1.4,2.7-1.4c1.1,0,2,0.4,2.6,1.3c0.6,0.9,0.9,2.1,0.9,3.6c0,1-0.1,1.9-0.4,2.6c-0.3,0.7-0.7,1.3-1.3,1.7
		C164.2,22.4,163.5,22.6,162.8,22.6z M162,14.9c-0.6,0-1.1,0.2-1.4,0.6c-0.3,0.4-0.4,1-0.5,1.9v0.3c0,1,0.1,1.7,0.4,2.2
		c0.3,0.4,0.8,0.7,1.4,0.7c1.1,0,1.7-0.9,1.7-2.8c0-0.9-0.1-1.6-0.4-2.1C163.1,15.1,162.6,14.9,162,14.9z"/>
</g>
<g>
	<polygon class="st0" points="0,22.4 16,0 32,22.4 28.8,32 22.4,30.4 16,25.6 9.6,30.4 3.2,32 	"/>
	<polygon class="st1" points="8,25.6 8,30.8 9.6,30.4 10.6,25.6 	"/>
	<polygon class="st1" points="11.3,22.4 11.3,22.4 16,0 8,11.2 8,22.4 	"/>
	<polygon class="st2" points="32,22.4 24,11.2 24,22.4 	"/>
	<polygon class="st1" points="20.7,22.4 20.8,22.4 20.8,6.7 16,0 20.7,22.4 	"/>
	<polygon class="st3" points="0,22.4 3.2,32 4.8,31.6 4.8,15.7 	"/>
	<polygon class="st1" points="22.4,30.4 28.8,32 30.9,25.6 21.4,25.6 	"/>
	<polygon class="st4" points="10.6,25.6 10.6,25.6 9.6,30.4 16,25.6 16,22.4 	"/>
	<polygon class="st4" points="16,19.2 16,0 11.3,22.4 	"/>
	<polygon class="st5" points="20.7,22.4 16,0 16,19.2 	"/>
	<polygon class="st5" points="21.4,25.6 16,22.4 16,25.6 22.4,30.4 21.4,25.6 	"/>
	<polygon class="st6" points="11.3,22.4 10.6,25.6 16,22.4 16,19.2 	"/>
	<polygon class="st0" points="10.6,25.6 11.3,22.4 8,22.4 8,11.2 4.8,15.7 4.8,31.6 8,30.8 8,25.6 	"/>
	<polygon class="st0" points="10.6,25.6 10.6,25.6 11.2,22.8 	"/>
	<polygon class="st0" points="32,22.4 24,22.4 24,11.2 20.8,6.7 20.8,22.4 20.7,22.4 21.4,25.6 30.9,25.6 32,22.4 	"/>
	<polygon class="st0" points="21.4,25.6 20.8,22.8 21.4,25.6 	"/>
	<polygon class="st7" points="16,19.2 16,22.4 21.4,25.6 20.7,22.4 	"/>
</g>
</svg>
