<?xml version="1.0" encoding="utf-8"?>
<svg version="1.1" id="oam-logo-symbol" xmlns="http://www.w3.org/2000/svg" xmlns:xlink="http://www.w3.org/1999/xlink" x="0px" y="0px"
	 width="640px" height="640px" viewBox="0 0 640 640" enable-background="new 0 0 640 640" xml:space="preserve">
	<g>
		<polygon fill="#FFFFFF" points="0,448 320,0 640,448 576,640 448,608 320,512 192,608 64,640 	"/>
		<polygon fill="#E4E8E9" points="160,512 160,616 192,608 212.2,512 	"/>
		<polygon fill="#E4E8E9" points="225.7,448 225.7,448 320,0 160,224 160,448 	"/>
		<polygon fill="#68C39F" points="640,448 480,224 480,448 	"/>
		<polygon fill="#E4E8E9" points="414.3,448 416,448 416,134.4 320,0 414.3,448 	"/>
		<polygon fill="#449BB5" points="0,448 64,640 96,632 96,313.6 	"/>
		<polygon fill="#E4E8E9" points="448,608 576,640 618.7,512 427.8,512 	"/>
		<polygon fill="#B8C1C4" points="212.2,512 212.2,512 192,608 320,512 320,448 	"/>
		<polygon fill="#B8C1C4" points="320,384 320,0 225.7,448 	"/>
		<polygon fill="#D2D8DA" points="414.3,448 320,0 320,384 	"/>
		<polygon fill="#D2D8DA" points="427.8,512 320,448 320,512 448,608 427.8,512 	"/>
		<polygon fill="#DBE0E1" points="225.7,448 212.2,512 320,448 320,384 	"/>
		<polygon fill="#FFFFFF" points="212.2,512 225.7,448 160,448 160,224 96,313.6 96,632 160,616 160,512 	"/>
		<polygon fill="#FFFFFF" points="212.2,512 212.2,512 224,456 	"/>
		<polygon fill="#FFFFFF" points="640,448 480,448 480,224 416,134.4 416,448 414.3,448 427.8,512 618.7,512 640,448 	"/>
		<polygon fill="#FFFFFF" points="427.8,512 416,456 427.8,512 	"/>
		<polygon fill="#EDEFF0" points="320,384 320,448 427.8,512 414.3,448 	"/>
	</g>
</svg>