<?xml version="1.0" encoding="utf-8"?>
<svg version="1.1" id="oam-logo-h-pos" xmlns="http://www.w3.org/2000/svg" xmlns:xlink="http://www.w3.org/1999/xlink" x="0px" y="0px"
	 width="832px" height="160px" viewBox="0 0 832 160" enable-background="new 0 0 832 160" xml:space="preserve">
<g>
	<path fill="#203C46" d="M250.4,81.1c0,10.2-2.5,18-7.5,23.5s-12.2,8.2-21.6,8.2s-16.6-2.7-21.6-8.2c-5-5.5-7.5-13.3-7.5-23.6
		c0-10.3,2.5-18.1,7.6-23.5c5-5.4,12.3-8.1,21.7-8.1s16.6,2.7,21.6,8.2C247.9,63,250.4,70.9,250.4,81.1z M205.6,81.1
		c0,6.9,1.3,12.1,3.9,15.6c2.6,3.5,6.5,5.2,11.7,5.2c10.4,0,15.6-6.9,15.6-20.8c0-13.9-5.2-20.8-15.5-20.8c-5.2,0-9.1,1.7-11.7,5.2
		C206.9,69,205.6,74.2,205.6,81.1z"/>
	<path fill="#203C46" d="M286.2,112.8c-5.5,0-9.8-2-13-6h-0.7c0.4,3.9,0.7,6.2,0.7,6.8v19.1h-12.8V64.9h10.4l1.8,6.1h0.6
		c3-4.7,7.4-7,13.3-7c5.5,0,9.9,2.1,13,6.4c3.1,4.3,4.7,10.3,4.7,17.9c0,5-0.7,9.4-2.2,13.1c-1.5,3.7-3.6,6.5-6.3,8.5
		S289.8,112.8,286.2,112.8z M282.4,74.3c-3.2,0-5.5,1-6.9,2.9c-1.5,2-2.2,5.2-2.3,9.7v1.4c0,5.1,0.7,8.7,2.2,10.9
		c1.5,2.2,3.9,3.3,7.1,3.3c5.7,0,8.6-4.7,8.6-14.2c0-4.6-0.7-8.1-2.1-10.4C287.6,75.4,285.4,74.3,282.4,74.3z"/>
	<path fill="#203C46" d="M334.8,112.8c-7.5,0-13.4-2.1-17.7-6.3c-4.2-4.2-6.4-10.1-6.4-17.8c0-7.9,2-14,5.9-18.3
		c3.9-4.3,9.4-6.5,16.3-6.5c6.6,0,11.8,1.9,15.5,5.7c3.7,3.8,5.5,9,5.5,15.7v6.2h-30.2c0.1,3.7,1.2,6.5,3.2,8.6
		c2,2.1,4.8,3.1,8.5,3.1c2.8,0,5.5-0.3,8-0.9c2.5-0.6,5.1-1.5,7.9-2.8v9.9c-2.2,1.1-4.6,2-7.2,2.5
		C341.5,112.6,338.4,112.8,334.8,112.8z M333,73.1c-2.7,0-4.8,0.9-6.4,2.6c-1.5,1.7-2.4,4.2-2.6,7.4h17.9c-0.1-3.2-0.9-5.6-2.5-7.4
		C337.8,74,335.7,73.1,333,73.1z"/>
	<path fill="#203C46" d="M406.1,112h-12.8V84.5c0-3.4-0.6-6-1.8-7.7c-1.2-1.7-3.1-2.6-5.7-2.6c-3.6,0-6.2,1.2-7.8,3.6
		c-1.6,2.4-2.4,6.4-2.4,12V112h-12.8V64.9h9.8l1.7,6h0.7c1.4-2.3,3.4-4,5.9-5.2c2.5-1.2,5.3-1.7,8.5-1.7c5.5,0,9.6,1.5,12.4,4.4
		c2.8,3,4.2,7.2,4.2,12.8V112z"/>
	<path fill="#203C46" d="M457.4,112l-4.4-14.7h-22.4l-4.4,14.7h-14l21.6-61.9h15.9l21.7,61.9H457.4z M449.8,86.4
		c-4.1-13.3-6.4-20.8-6.9-22.6c-0.5-1.7-0.9-3.1-1.1-4.1c-0.9,3.6-3.6,12.5-7.9,26.7H449.8z"/>
	<path fill="#203C46" d="M497.3,112.8c-7.5,0-13.4-2.1-17.7-6.3c-4.2-4.2-6.4-10.1-6.4-17.8c0-7.9,2-14,5.9-18.3
		c3.9-4.3,9.4-6.5,16.3-6.5c6.6,0,11.8,1.9,15.5,5.7c3.7,3.8,5.5,9,5.5,15.7v6.2h-30.2c0.1,3.7,1.2,6.5,3.2,8.6
		c2,2.1,4.8,3.1,8.5,3.1c2.8,0,5.5-0.3,8-0.9c2.5-0.6,5.1-1.5,7.9-2.8v9.9c-2.2,1.1-4.6,2-7.2,2.5
		C504.1,112.6,501,112.8,497.3,112.8z M495.5,73.1c-2.7,0-4.8,0.9-6.4,2.6c-1.5,1.7-2.4,4.2-2.6,7.4h17.9c-0.1-3.2-0.9-5.6-2.5-7.4
		C500.4,74,498.2,73.1,495.5,73.1z"/>
	<path fill="#203C46" d="M551.5,64c1.7,0,3.2,0.1,4.3,0.4l-1,12.1c-1-0.3-2.3-0.4-3.8-0.4c-4.1,0-7.3,1.1-9.5,3.2
		c-2.3,2.1-3.4,5.1-3.4,8.9v24h-12.8V64.9h9.7l1.9,7.9h0.6c1.5-2.6,3.4-4.8,5.9-6.4C545.9,64.8,548.6,64,551.5,64z"/>
	<path fill="#203C46" d="M561.7,52.7c0-4.2,2.3-6.3,7-6.3c4.6,0,7,2.1,7,6.3c0,2-0.6,3.5-1.7,4.7c-1.2,1.1-2.9,1.7-5.2,1.7
		C564,59,561.7,56.9,561.7,52.7z M575,112h-12.8V64.9H575V112z"/>
	<path fill="#203C46" d="M615.9,112l-2.5-6.4h-0.3c-2.2,2.7-4.4,4.6-6.6,5.7c-2.3,1.1-5.2,1.6-8.9,1.6c-4.5,0-8-1.3-10.6-3.9
		c-2.6-2.6-3.9-6.3-3.9-11c0-5,1.7-8.7,5.2-11.1c3.5-2.4,8.7-3.7,15.7-3.9l8.1-0.3v-2.1c0-4.8-2.4-7.2-7.3-7.2
		c-3.7,0-8.2,1.1-13.2,3.4l-4.2-8.7c5.4-2.8,11.4-4.3,17.9-4.3c6.3,0,11.1,1.4,14.5,4.1c3.4,2.8,5,6.9,5,12.6V112H615.9z
		 M612.1,90.2l-4.9,0.2c-3.7,0.1-6.5,0.8-8.3,2c-1.8,1.2-2.7,3.1-2.7,5.6c0,3.6,2.1,5.4,6.2,5.4c3,0,5.3-0.9,7.1-2.6
		c1.8-1.7,2.7-4,2.7-6.8V90.2z"/>
	<path fill="#203C46" d="M648.5,112h-12.8V46.4h12.8V112z"/>
	<path fill="#203C46" d="M686.7,112L672,63.6h-0.4c0.5,9.8,0.8,16.4,0.8,19.7V112h-11.6V50.4h17.7L693,97.5h0.3l15.4-47.1h17.7V112
		h-12.1V82.8c0-1.4,0-3,0.1-4.8c0-1.8,0.2-6.6,0.6-14.3h-0.4L698.6,112H686.7z"/>
	<path fill="#203C46" d="M768.4,112l-2.5-6.4h-0.3c-2.2,2.7-4.4,4.6-6.6,5.7c-2.3,1.1-5.2,1.6-8.9,1.6c-4.5,0-8-1.3-10.6-3.9
		c-2.6-2.6-3.9-6.3-3.9-11c0-5,1.7-8.7,5.2-11.1c3.5-2.4,8.7-3.7,15.7-3.9l8.1-0.3v-2.1c0-4.8-2.4-7.2-7.3-7.2
		c-3.7,0-8.2,1.1-13.2,3.4l-4.2-8.7c5.4-2.8,11.4-4.3,17.9-4.3c6.3,0,11.1,1.4,14.5,4.1c3.4,2.8,5,6.9,5,12.6V112H768.4z
		 M764.6,90.2l-4.9,0.2c-3.7,0.1-6.5,0.8-8.3,2c-1.8,1.2-2.7,3.1-2.7,5.6c0,3.6,2.1,5.4,6.2,5.4c3,0,5.3-0.9,7.1-2.6
		c1.8-1.7,2.7-4,2.7-6.8V90.2z"/>
	<path fill="#203C46" d="M814,112.8c-5.5,0-9.8-2-13-6h-0.7c0.4,3.9,0.7,6.2,0.7,6.8v19.1h-12.8V64.9h10.4l1.8,6.1h0.6
		c3-4.7,7.4-7,13.3-7c5.5,0,9.9,2.1,13,6.4c3.1,4.3,4.7,10.3,4.7,17.9c0,5-0.7,9.4-2.2,13.1c-1.5,3.7-3.6,6.5-6.3,8.5
		C820.8,111.9,817.6,112.8,814,112.8z M810.2,74.3c-3.2,0-5.5,1-6.9,2.9c-1.5,2-2.2,5.2-2.3,9.7v1.4c0,5.1,0.7,8.7,2.2,10.9
		c1.5,2.2,3.9,3.3,7.1,3.3c5.7,0,8.6-4.7,8.6-14.2c0-4.6-0.7-8.1-2.1-10.4C815.4,75.4,813.2,74.3,810.2,74.3z"/>
</g>
<g>
	<polygon fill="#FFFFFF" points="0,112 80,0 160,112 144,160 112,152 80,128 48,152 16,160 	"/>
	<polygon fill="#E4E8E9" points="40,128 40,154 48,152 53.1,128 	"/>
	<polygon fill="#E4E8E9" points="56.4,112 56.4,112 80,0 40,56 40,112 	"/>
	<polygon fill="#68C39F" points="160,112 120,56 120,112 	"/>
	<polygon fill="#E4E8E9" points="103.6,112 104,112 104,33.6 80,0 103.6,112 	"/>
	<polygon fill="#449BB5" points="0,112 16,160 24,158 24,78.4 	"/>
	<polygon fill="#E4E8E9" points="112,152 144,160 154.7,128 106.9,128 	"/>
	<polygon fill="#B8C1C4" points="53.1,128 53.1,128 48,152 80,128 80,112 	"/>
	<polygon fill="#B8C1C4" points="80,96 80,0 56.4,112 	"/>
	<polygon fill="#D2D8DA" points="103.6,112 80,0 80,96 	"/>
	<polygon fill="#D2D8DA" points="106.9,128 80,112 80,128 112,152 106.9,128 	"/>
	<polygon fill="#DBE0E1" points="56.4,112 53.1,128 80,112 80,96 	"/>
	<polygon fill="#FFFFFF" points="53.1,128 56.4,112 40,112 40,56 24,78.4 24,158 40,154 40,128 	"/>
	<polygon fill="#FFFFFF" points="53.1,128 53.1,128 56,114 	"/>
	<polygon fill="#FFFFFF" points="160,112 120,112 120,56 104,33.6 104,112 103.6,112 106.9,128 154.7,128 160,112 	"/>
	<polygon fill="#FFFFFF" points="106.9,128 104,114 106.9,128 	"/>
	<polygon fill="#EDEFF0" points="80,96 80,112 106.9,128 103.6,112 	"/>
</g>
</svg>